<svg width="42" height="30" viewBox="0 0 42 30" fill="none" xmlns="http://www.w3.org/2000/svg">
<path d="M40.9555 23.5209L38.6847 7.56252C38.1014 3.45835 34.5808 0.416687 30.4352 0.416687H11.5613C7.41568 0.416687 3.89505 3.45835 3.31175 7.56252L1.04105 23.5209C0.582739 26.7292 3.06177 29.5834 6.29075 29.5834C7.70734 29.5834 9.04059 29.0209 10.0405 28.0209L14.7486 23.3334H27.2479L31.9351 28.0209C32.9351 29.0209 34.2892 29.5834 35.6849 29.5834C38.9347 29.5834 41.4138 26.7292 40.9555 23.5209ZM18.915 12.9167H14.7486V17.0834H12.6654V12.9167H8.49896V10.8334H12.6654V6.66669H14.7486V10.8334H18.915V12.9167ZM27.2479 10.8334C26.1021 10.8334 25.1647 9.89586 25.1647 8.75002C25.1647 7.60419 26.1021 6.66669 27.2479 6.66669C28.3937 6.66669 29.3311 7.60419 29.3311 8.75002C29.3311 9.89586 28.3937 10.8334 27.2479 10.8334ZM31.4143 17.0834C30.2686 17.0834 29.3311 16.1459 29.3311 15C29.3311 13.8542 30.2686 12.9167 31.4143 12.9167C32.5601 12.9167 33.4975 13.8542 33.4975 15C33.4975 16.1459 32.5601 17.0834 31.4143 17.0834Z" fill="#2A7AE4"/>
</svg>
